# xmcd
#
# Track frame offsets:
#	150
#	65602
#	84901
#	101773
#	119334
#	143218
#	160392
#	177628
#	213212
#	230725
#
# Disc length: 3258 seconds
#
# Revision: 1
# Processed by: cddbd v1.4b41PL3 Copyright (c) Steve Scherf et al.
# Submitted via: audiograbber 1.80
#
DISCID=8f0cb80a
DTITLE=Adrian Byron Burns - Ah! Koo Stick Too...
DYEAR=1900
DGENRE=
TTITLE0=Hendrixology (Little Wing, If 6 Were 9, Hey Joe)
TTITLE1=It's Probably Me
TTITLE2=Only Love Can Break Your Heart
TTITLE3=Rio Blues (Acoustic Version)
TTITLE4=All Along The Watchtower
TTITLE5=Every Breath You Take
TTITLE6=Baby, Please Don't Go
TTITLE7=Beatlesology (Come Together, Hard Day's Night, Day Tripper)
TTITLE8=House Of The Rising Sun
TTITLE9=Ain't Supersititious
EXTD=
EXTT0=
EXTT1=
EXTT2=
EXTT3=
EXTT4=
EXTT5=
EXTT6=
EXTT7=
EXTT8=
EXTT9=
PLAYORDER=
